<svg xmlns="http://www.w3.org/2000/svg" width="264" height="264" viewBox="0 0 264 264"><rect width="100%" height="100%" fill="#ffffff"/><g fill="#000000"><rect x="88" y="32" width="8" height="8"/><rect x="120" y="32" width="8" height="8"/><rect x="144" y="32" width="8" height="8"/><rect x="168" y="32" width="8" height="8"/><rect x="88" y="40" width="8" height="8"/><rect x="96" y="40" width="8" height="8"/><rect x="112" y="40" width="8" height="8"/><rect x="128" y="40" width="8" height="8"/><rect x="168" y="40" width="8" height="8"/><rect x="48" y="48" width="8" height="8"/><rect x="56" y="48" width="8" height="8"/><rect x="64" y="48" width="8" height="8"/><rect x="88" y="48" width="8" height="8"/><rect x="112" y="48" width="8" height="8"/><rect x="120" y="48" width="8" height="8"/><rect x="136" y="48" width="8" height="8"/><rect x="144" y="48" width="8" height="8"/><rect x="152" y="48" width="8" height="8"/><rect x="168" y="48" width="8" height="8"/><rect x="192" y="48" width="8" height="8"/><rect x="200" y="48" width="8" height="8"/><rect x="208" y="48" width="8" height="8"/><rect x="48" y="56" width="8" height="8"/><rect x="56" y="56" width="8" height="8"/><rect x="64" y="56" width="8" height="8"/><rect x="88" y="56" width="8" height="8"/><rect x="104" y="56" width="8" height="8"/><rect x="120" y="56" width="8" height="8"/><rect x="136" y="56" width="8" height="8"/><rect x="144" y="56" width="8" height="8"/><rect x="160" y="56" width="8" height="8"/><rect x="168" y="56" width="8" height="8"/><rect x="192" y="56" width="8" height="8"/><rect x="200" y="56" width="8" height="8"/><rect x="208" y="56" width="8" height="8"/><rect x="48" y="64" width="8" height="8"/><rect x="56" y="64" width="8" height="8"/><rect x="64" y="64" width="8" height="8"/><rect x="88" y="64" width="8" height="8"/><rect x="104" y="64" width="8" height="8"/><rect x="136" y="64" width="8" height="8"/><rect x="144" y="64" width="8" height="8"/><rect x="168" y="64" width="8" height="8"/><rect x="192" y="64" width="8" height="8"/><rect x="200" y="64" width="8" height="8"/><rect x="208" y="64" width="8" height="8"/><rect x="88" y="72" width="8" height="8"/><rect x="96" y="72" width="8" height="8"/><rect x="112" y="72" width="8" height="8"/><rect x="120" y="72" width="8" height="8"/><rect x="128" y="72" width="8" height="8"/><rect x="144" y="72" width="8" height="8"/><rect x="168" y="72" width="8" height="8"/><rect x="88" y="80" width="8" height="8"/><rect x="96" y="80" width="8" height="8"/><rect x="112" y="80" width="8" height="8"/><rect x="128" y="80" width="8" height="8"/><rect x="144" y="80" width="8" height="8"/><rect x="160" y="80" width="8" height="8"/><rect x="168" y="80" width="8" height="8"/><rect x="32" y="88" width="8" height="8"/><rect x="40" y="88" width="8" height="8"/><rect x="48" y="88" width="8" height="8"/><rect x="56" y="88" width="8" height="8"/><rect x="64" y="88" width="8" height="8"/><rect x="72" y="88" width="8" height="8"/><rect x="80" y="88" width="8" height="8"/><rect x="88" y="88" width="8" height="8"/><rect x="112" y="88" width="8" height="8"/><rect x="120" y="88" width="8" height="8"/><rect x="152" y="88" width="8" height="8"/><rect x="168" y="88" width="8" height="8"/><rect x="176" y="88" width="8" height="8"/><rect x="184" y="88" width="8" height="8"/><rect x="192" y="88" width="8" height="8"/><rect x="200" y="88" width="8" height="8"/><rect x="208" y="88" width="8" height="8"/><rect x="216" y="88" width="8" height="8"/><rect x="224" y="88" width="8" height="8"/><rect x="32" y="96" width="8" height="8"/><rect x="48" y="96" width="8" height="8"/><rect x="80" y="96" width="8" height="8"/><rect x="88" y="96" width="8" height="8"/><rect x="96" y="96" width="8" height="8"/><rect x="104" y="96" width="8" height="8"/><rect x="168" y="96" width="8" height="8"/><rect x="184" y="96" width="8" height="8"/><rect x="208" y="96" width="8" height="8"/><rect x="32" y="104" width="8" height="8"/><rect x="40" y="104" width="8" height="8"/><rect x="64" y="104" width="8" height="8"/><rect x="72" y="104" width="8" height="8"/><rect x="96" y="104" width="8" height="8"/><rect x="112" y="104" width="8" height="8"/><rect x="128" y="104" width="8" height="8"/><rect x="144" y="104" width="8" height="8"/><rect x="184" y="104" width="8" height="8"/><rect x="40" y="112" width="8" height="8"/><rect x="48" y="112" width="8" height="8"/><rect x="56" y="112" width="8" height="8"/><rect x="72" y="112" width="8" height="8"/><rect x="80" y="112" width="8" height="8"/><rect x="88" y="112" width="8" height="8"/><rect x="112" y="112" width="8" height="8"/><rect x="128" y="112" width="8" height="8"/><rect x="136" y="112" width="8" height="8"/><rect x="160" y="112" width="8" height="8"/><rect x="176" y="112" width="8" height="8"/><rect x="192" y="112" width="8" height="8"/><rect x="200" y="112" width="8" height="8"/><rect x="224" y="112" width="8" height="8"/><rect x="32" y="120" width="8" height="8"/><rect x="40" y="120" width="8" height="8"/><rect x="64" y="120" width="8" height="8"/><rect x="96" y="120" width="8" height="8"/><rect x="104" y="120" width="8" height="8"/><rect x="120" y="120" width="8" height="8"/><rect x="128" y="120" width="8" height="8"/><rect x="136" y="120" width="8" height="8"/><rect x="152" y="120" width="8" height="8"/><rect x="176" y="120" width="8" height="8"/><rect x="200" y="120" width="8" height="8"/><rect x="216" y="120" width="8" height="8"/><rect x="32" y="128" width="8" height="8"/><rect x="56" y="128" width="8" height="8"/><rect x="64" y="128" width="8" height="8"/><rect x="80" y="128" width="8" height="8"/><rect x="88" y="128" width="8" height="8"/><rect x="128" y="128" width="8" height="8"/><rect x="136" y="128" width="8" height="8"/><rect x="144" y="128" width="8" height="8"/><rect x="152" y="128" width="8" height="8"/><rect x="160" y="128" width="8" height="8"/><rect x="168" y="128" width="8" height="8"/><rect x="184" y="128" width="8" height="8"/><rect x="192" y="128" width="8" height="8"/><rect x="200" y="128" width="8" height="8"/><rect x="208" y="128" width="8" height="8"/><rect x="216" y="128" width="8" height="8"/><rect x="48" y="136" width="8" height="8"/><rect x="56" y="136" width="8" height="8"/><rect x="72" y="136" width="8" height="8"/><rect x="88" y="136" width="8" height="8"/><rect x="96" y="136" width="8" height="8"/><rect x="104" y="136" width="8" height="8"/><rect x="120" y="136" width="8" height="8"/><rect x="128" y="136" width="8" height="8"/><rect x="136" y="136" width="8" height="8"/><rect x="168" y="136" width="8" height="8"/><rect x="184" y="136" width="8" height="8"/><rect x="200" y="136" width="8" height="8"/><rect x="216" y="136" width="8" height="8"/><rect x="32" y="144" width="8" height="8"/><rect x="40" y="144" width="8" height="8"/><rect x="64" y="144" width="8" height="8"/><rect x="80" y="144" width="8" height="8"/><rect x="88" y="144" width="8" height="8"/><rect x="96" y="144" width="8" height="8"/><rect x="112" y="144" width="8" height="8"/><rect x="120" y="144" width="8" height="8"/><rect x="128" y="144" width="8" height="8"/><rect x="144" y="144" width="8" height="8"/><rect x="160" y="144" width="8" height="8"/><rect x="168" y="144" width="8" height="8"/><rect x="176" y="144" width="8" height="8"/><rect x="184" y="144" width="8" height="8"/><rect x="208" y="144" width="8" height="8"/><rect x="224" y="144" width="8" height="8"/><rect x="88" y="152" width="8" height="8"/><rect x="104" y="152" width="8" height="8"/><rect x="112" y="152" width="8" height="8"/><rect x="128" y="152" width="8" height="8"/><rect x="136" y="152" width="8" height="8"/><rect x="152" y="152" width="8" height="8"/><rect x="184" y="152" width="8" height="8"/><rect x="200" y="152" width="8" height="8"/><rect x="216" y="152" width="8" height="8"/><rect x="224" y="152" width="8" height="8"/><rect x="32" y="160" width="8" height="8"/><rect x="40" y="160" width="8" height="8"/><rect x="48" y="160" width="8" height="8"/><rect x="64" y="160" width="8" height="8"/><rect x="80" y="160" width="8" height="8"/><rect x="88" y="160" width="8" height="8"/><rect x="104" y="160" width="8" height="8"/><rect x="112" y="160" width="8" height="8"/><rect x="120" y="160" width="8" height="8"/><rect x="144" y="160" width="8" height="8"/><rect x="160" y="160" width="8" height="8"/><rect x="168" y="160" width="8" height="8"/><rect x="176" y="160" width="8" height="8"/><rect x="184" y="160" width="8" height="8"/><rect x="192" y="160" width="8" height="8"/><rect x="208" y="160" width="8" height="8"/><rect x="216" y="160" width="8" height="8"/><rect x="224" y="160" width="8" height="8"/><rect x="32" y="168" width="8" height="8"/><rect x="40" y="168" width="8" height="8"/><rect x="48" y="168" width="8" height="8"/><rect x="56" y="168" width="8" height="8"/><rect x="64" y="168" width="8" height="8"/><rect x="72" y="168" width="8" height="8"/><rect x="80" y="168" width="8" height="8"/><rect x="88" y="168" width="8" height="8"/><rect x="96" y="168" width="8" height="8"/><rect x="112" y="168" width="8" height="8"/><rect x="120" y="168" width="8" height="8"/><rect x="128" y="168" width="8" height="8"/><rect x="136" y="168" width="8" height="8"/><rect x="160" y="168" width="8" height="8"/><rect x="192" y="168" width="8" height="8"/><rect x="88" y="176" width="8" height="8"/><rect x="96" y="176" width="8" height="8"/><rect x="112" y="176" width="8" height="8"/><rect x="120" y="176" width="8" height="8"/><rect x="128" y="176" width="8" height="8"/><rect x="136" y="176" width="8" height="8"/><rect x="152" y="176" width="8" height="8"/><rect x="160" y="176" width="8" height="8"/><rect x="176" y="176" width="8" height="8"/><rect x="192" y="176" width="8" height="8"/><rect x="200" y="176" width="8" height="8"/><rect x="224" y="176" width="8" height="8"/><rect x="88" y="184" width="8" height="8"/><rect x="136" y="184" width="8" height="8"/><rect x="160" y="184" width="8" height="8"/><rect x="192" y="184" width="8" height="8"/><rect x="200" y="184" width="8" height="8"/><rect x="216" y="184" width="8" height="8"/><rect x="224" y="184" width="8" height="8"/><rect x="48" y="192" width="8" height="8"/><rect x="56" y="192" width="8" height="8"/><rect x="64" y="192" width="8" height="8"/><rect x="88" y="192" width="8" height="8"/><rect x="104" y="192" width="8" height="8"/><rect x="128" y="192" width="8" height="8"/><rect x="136" y="192" width="8" height="8"/><rect x="144" y="192" width="8" height="8"/><rect x="160" y="192" width="8" height="8"/><rect x="168" y="192" width="8" height="8"/><rect x="176" y="192" width="8" height="8"/><rect x="184" y="192" width="8" height="8"/><rect x="192" y="192" width="8" height="8"/><rect x="200" y="192" width="8" height="8"/><rect x="208" y="192" width="8" height="8"/><rect x="216" y="192" width="8" height="8"/><rect x="48" y="200" width="8" height="8"/><rect x="56" y="200" width="8" height="8"/><rect x="64" y="200" width="8" height="8"/><rect x="88" y="200" width="8" height="8"/><rect x="112" y="200" width="8" height="8"/><rect x="120" y="200" width="8" height="8"/><rect x="136" y="200" width="8" height="8"/><rect x="168" y="200" width="8" height="8"/><rect x="184" y="200" width="8" height="8"/><rect x="208" y="200" width="8" height="8"/><rect x="216" y="200" width="8" height="8"/><rect x="48" y="208" width="8" height="8"/><rect x="56" y="208" width="8" height="8"/><rect x="64" y="208" width="8" height="8"/><rect x="88" y="208" width="8" height="8"/><rect x="96" y="208" width="8" height="8"/><rect x="128" y="208" width="8" height="8"/><rect x="144" y="208" width="8" height="8"/><rect x="152" y="208" width="8" height="8"/><rect x="192" y="208" width="8" height="8"/><rect x="216" y="208" width="8" height="8"/><rect x="224" y="208" width="8" height="8"/><rect x="88" y="216" width="8" height="8"/><rect x="104" y="216" width="8" height="8"/><rect x="128" y="216" width="8" height="8"/><rect x="136" y="216" width="8" height="8"/><rect x="160" y="216" width="8" height="8"/><rect x="168" y="216" width="8" height="8"/><rect x="184" y="216" width="8" height="8"/><rect x="200" y="216" width="8" height="8"/><rect x="88" y="224" width="8" height="8"/><rect x="96" y="224" width="8" height="8"/><rect x="104" y="224" width="8" height="8"/><rect x="136" y="224" width="8" height="8"/><rect x="144" y="224" width="8" height="8"/><rect x="152" y="224" width="8" height="8"/><rect x="168" y="224" width="8" height="8"/><rect x="176" y="224" width="8" height="8"/><rect x="184" y="224" width="8" height="8"/><rect x="192" y="224" width="8" height="8"/><rect x="200" y="224" width="8" height="8"/><rect x="208" y="224" width="8" height="8"/><rect x="224" y="224" width="8" height="8"/></g></svg>